<?xml version="1.0" encoding="utf-8"?>
<!-- Generator: Adobe Illustrator 16.0.0, SVG Export Plug-In . SVG Version: 6.00 Build 0)  -->
<!DOCTYPE svg PUBLIC "-//W3C//DTD SVG 1.0//EN" "http://www.w3.org/TR/2001/REC-SVG-20010904/DTD/svg10.dtd">
<svg version="1.0" id="Layer_1" xmlns="http://www.w3.org/2000/svg" xmlns:xlink="http://www.w3.org/1999/xlink" x="0px" y="0px"
	 width="82px" height="24px" viewBox="0 0 82 24" enable-background="new 0 0 82 24" xml:space="preserve">
<circle fill="#FFCD05" stroke="#999999" stroke-width="0.9847" stroke-miterlimit="10" cx="14.175" cy="12.336" r="11"/>
<g>
	<path fill-rule="evenodd" clip-rule="evenodd" d="M20.162,8.688l-5.987-3.641l-6,3.541v7.344l6,3.647l6-3.647L20.162,8.688z
		 M14.175,6.433l3.535,2.141l-3.535,2.139L10.64,8.574L14.175,6.433z M16.531,16.666l-2.356,1.527l-2.356-1.527v-2.905l2.356,1.509
		l2.356-1.509V16.666z M18.997,15.168L17.71,15.95v-4.313l-3.535,2.14l-3.535-2.14v4.313l-1.287-0.782l0.011-5.875l4.811,2.913
		l4.822-2.919V15.168z"/>
	<path fill="none" d="M20.162,8.735l-5.987-3.64l-6,3.54v7.344l6,3.648l6-3.648L20.162,8.735z M14.175,6.481l3.535,2.141
		l-3.535,2.14l-3.535-2.14L14.175,6.481z M16.531,16.715l-2.356,1.525l-2.356-1.525v-2.906l2.356,1.51l2.356-1.51V16.715z
		 M18.997,15.215l-1.287,0.783v-4.313l-3.535,2.14l-3.535-2.14v4.313l-1.287-0.783l0.011-5.873l4.811,2.912l4.822-2.919V15.215z"/>
</g>
<g>
	<polygon points="27.476,8.689 28.376,8.689 31.246,14.188 34.085,8.689 34.985,8.689 34.985,16.021 34.315,16.021 34.305,9.694 
		31.435,15.235 31.037,15.235 28.156,9.694 28.156,16.021 27.476,16.021 	"/>
	<polygon points="42.59,8.7 39.772,13.413 39.772,16.021 39.049,16.021 39.049,13.413 36.19,8.7 36.944,8.7 39.417,12.639 
		41.835,8.7 	"/>
	<path d="M48.891,9.056c0.604,0.328,1.078,0.779,1.424,1.352c0.346,0.573,0.519,1.215,0.519,1.928c0,0.719-0.173,1.368-0.519,1.947
		c-0.346,0.58-0.82,1.038-1.424,1.372c-0.604,0.335-1.281,0.503-2.027,0.503c-0.748,0-1.423-0.166-2.027-0.498
		c-0.604-0.331-1.078-0.788-1.424-1.371s-0.519-1.234-0.519-1.953c0-0.713,0.173-1.354,0.519-1.928
		c0.346-0.572,0.82-1.023,1.424-1.352c0.604-0.328,1.279-0.492,2.027-0.492C47.609,8.563,48.286,8.728,48.891,9.056 M45.873,10.47
		c-0.311,0.188-0.557,0.449-0.738,0.78c-0.182,0.332-0.271,0.696-0.271,1.095c0,0.405,0.092,0.773,0.277,1.104
		c0.184,0.333,0.431,0.595,0.738,0.786c0.307,0.191,0.643,0.288,1.006,0.288c0.362,0,0.695-0.097,1-0.288
		c0.303-0.191,0.543-0.453,0.717-0.786c0.175-0.331,0.262-0.699,0.262-1.104c0-0.398-0.087-0.763-0.262-1.095
		c-0.174-0.331-0.414-0.592-0.717-0.78c-0.305-0.188-0.638-0.283-1-0.283C46.521,10.187,46.184,10.281,45.873,10.47"/>
	<polygon points="51.786,8.679 57.274,8.679 57.264,10.208 53.703,10.208 53.703,11.842 56.992,11.842 56.992,13.371 53.703,13.371 
		53.703,16.021 51.786,16.021 	"/>
	<polygon points="58.144,8.679 63.632,8.679 63.622,10.208 60.061,10.208 60.061,11.842 63.35,11.842 63.35,13.371 60.061,13.371 
		60.061,16.021 58.144,16.021 	"/>
	<rect x="64.502" y="8.679" width="1.917" height="7.343"/>
	<path d="M72.305,10.454c-0.329-0.178-0.653-0.268-0.974-0.268c-0.37,0-0.707,0.093-1.012,0.278
		c-0.304,0.186-0.542,0.439-0.717,0.765c-0.175,0.324-0.262,0.687-0.262,1.084s0.087,0.76,0.262,1.084
		c0.175,0.325,0.413,0.58,0.717,0.765c0.305,0.186,0.642,0.277,1.012,0.277c0.3,0,0.614-0.076,0.942-0.23
		c0.327-0.153,0.621-0.362,0.88-0.628l1.12,1.204c-0.397,0.419-0.871,0.753-1.419,1c-0.548,0.248-1.092,0.372-1.629,0.372
		c-0.727,0-1.383-0.168-1.969-0.503c-0.587-0.334-1.048-0.792-1.383-1.372c-0.335-0.579-0.503-1.229-0.503-1.947
		c0-0.713,0.171-1.354,0.514-1.928c0.342-0.572,0.812-1.023,1.409-1.352c0.597-0.328,1.265-0.492,2.006-0.492
		c0.544,0,1.081,0.114,1.612,0.341c0.53,0.227,0.98,0.536,1.352,0.927l-1.11,1.341C72.916,10.871,72.633,10.633,72.305,10.454"/>
	<polygon points="75.09,8.679 80.883,8.679 80.883,10.208 77.008,10.208 77.008,11.58 80.506,11.58 80.506,13.099 77.008,13.109 
		77.008,14.492 80.987,14.492 80.987,16.021 75.09,16.021 	"/>
</g>
</svg>
