<svg xmlns="http://www.w3.org/2000/svg" xmlns:xlink="http://www.w3.org/1999/xlink" width="600" height="177" viewBox="0 0 600 177">
  <defs>
    <clipPath id="clip-Logo_MyOffice_600x177">
      <rect width="600" height="177"/>
    </clipPath>
  </defs>
  <g id="Logo_MyOffice_600x177" clip-path="url(#clip-Logo_MyOffice_600x177)">
    <rect width="600" height="177" fill="#fff"/>
    <path id="Path_1" data-name="Path 1" d="M169.8,84.645A83.312,83.312,0,1,1,86.49,1.336,83.305,83.305,0,0,1,169.8,84.645Z" transform="translate(-0.174 2.664)" fill="#ffc000"/>
    <path id="Path_1_-_Outline" data-name="Path 1 - Outline" d="M87.024.844a84.356,84.356,0,0,1,32.827,162.042A84.356,84.356,0,0,1,54.2,7.473,83.8,83.8,0,0,1,87.024.844Zm0,166.617A82.283,82.283,0,1,0,4.734,85.178,82.376,82.376,0,0,0,87.024,167.461Z" transform="translate(0.318 2.156)" fill="#878787"/>
    <g id="Group_1" data-name="Group 1" transform="translate(41 32)">
      <path id="Path_2" data-name="Path 2" d="M98.965,32.629,53.623,5.046,8.174,31.864v55.62L53.623,115.1,99.064,87.484ZM53.623,15.55,80.4,31.765l-26.772,16.2L26.85,31.765Zm17.843,77.5L53.623,104.615,35.772,93.05v-22L53.623,82.478,71.466,71.049ZM90.142,81.705,80.4,87.628V54.963L53.623,71.17,26.85,54.963V87.628L17.1,81.705l.083-44.494L53.623,59.272,90.142,37.165Z" transform="translate(-8.174 -5.046)" fill="#030504" fill-rule="evenodd"/>
      <path id="Path_3" data-name="Path 3" d="M98.965,32.663,53.623,5.095,8.174,31.905V87.518l45.449,27.636L99.064,87.518ZM53.623,15.592,80.4,31.807l-26.772,16.2L26.85,31.807ZM71.466,93.1l-17.843,11.55L35.772,93.1V71.091L53.623,82.519,71.466,71.091Zm18.676-11.36L80.4,87.669V55L53.623,71.212,26.85,55V87.669L17.1,81.739l.083-44.479L53.623,59.314,90.142,37.207Z" transform="translate(-8.174 -4.724)" fill="none"/>
    </g>
    <g id="Group_2" data-name="Group 2" transform="translate(192.411 58)">
      <path id="Path_4" data-name="Path 4" d="M27.476,8.689h6.819L56.032,50.337l21.5-41.647h6.819V64.219H79.277L79.2,16.3,57.463,58.265H54.449L32.631,16.3V64.219H27.476Z" transform="translate(-27.476 -7.732)" fill="#030504"/>
      <path id="Path_5" data-name="Path 5" d="M84.66,8.7,63.323,44.393V64.148H57.846V44.393L36.19,8.7H41.9L60.627,38.528,78.946,8.7Z" transform="translate(29.808 -7.661)" fill="#030504"/>
      <path id="Path_6" data-name="Path 6" d="M88.312,12.3A27.644,27.644,0,0,1,103.02,37.13,28.137,28.137,0,0,1,88.312,62.267a31.19,31.19,0,0,1-15.359,3.809A31.321,31.321,0,0,1,57.6,62.3,27.876,27.876,0,0,1,46.817,51.921,28.426,28.426,0,0,1,42.894,37.13,27.644,27.644,0,0,1,57.6,12.3,31.631,31.631,0,0,1,72.953,8.563,31.724,31.724,0,0,1,88.312,12.3M65.456,23.006a15.433,15.433,0,0,0-5.589,5.907,16.941,16.941,0,0,0-2.06,8.293,16.766,16.766,0,0,0,2.105,8.361A15.848,15.848,0,0,0,65.5,51.52,14.087,14.087,0,0,0,73.12,53.7a13.935,13.935,0,0,0,7.573-2.181,15.229,15.229,0,0,0,5.43-5.953A17.69,17.69,0,0,0,88.1,37.206a17.568,17.568,0,0,0-1.977-8.293,15.048,15.048,0,0,0-5.43-5.907,14.1,14.1,0,0,0-7.573-2.151,14.507,14.507,0,0,0-7.664,2.151" transform="translate(73.878 -8.563)" fill="#030504"/>
      <path id="Path_7" data-name="Path 7" d="M51.786,8.679H93.352l-.081,11.582H66.3V32.634h24.91V44.217H66.3V64.289H51.786Z" transform="translate(132.33 -7.802)" fill="#030504"/>
      <path id="Path_8" data-name="Path 8" d="M58.144,8.679H99.709l-.073,11.582H72.661V32.634h24.91V44.217H72.661V64.289H58.144Z" transform="translate(174.121 -7.802)" fill="#030504"/>
      <rect id="Rectangle_1" data-name="Rectangle 1" width="14.518" height="55.611" transform="translate(280.42 0.876)" fill="#030504"/>
      <path id="Path_9" data-name="Path 9" d="M104.739,22.885a15.438,15.438,0,0,0-7.377-2.03A14.429,14.429,0,0,0,89.7,22.968a14.816,14.816,0,0,0-5.423,5.794,17.006,17.006,0,0,0-1.984,8.21,17,17,0,0,0,1.984,8.2A14.764,14.764,0,0,0,89.7,50.967a14.423,14.423,0,0,0,7.664,2.105,16.783,16.783,0,0,0,7.134-1.749,22.433,22.433,0,0,0,6.665-4.756l8.482,9.119A33.749,33.749,0,0,1,108.9,63.259a29.817,29.817,0,0,1-27.242-.992A27.708,27.708,0,0,1,71.18,51.876,28.907,28.907,0,0,1,67.371,37.13,27.727,27.727,0,0,1,81.935,12.3a31.562,31.562,0,0,1,27.4-1.151,30.438,30.438,0,0,1,10.239,7.021l-8.414,10.156a20.732,20.732,0,0,0-6.422-5.438" transform="translate(234.777 -8.563)" fill="#030504"/>
      <path id="Path_10" data-name="Path 10" d="M75.09,8.679h43.873V20.261H89.616V30.652h26.493v11.5l-26.493.082V52.707h30.139V64.289H75.09Z" transform="translate(285.517 -7.802)" fill="#030504"/>
    </g>
  </g>
</svg>
