<?xml version="1.0" encoding="utf-8"?>
<!-- Designed by Vexels.com - 2016 All Rights Reserved - https://vexels.com/terms-and-conditions/  -->

<svg version="1.0" id="Capa_1" xmlns="http://www.w3.org/2000/svg" xmlns:xlink="http://www.w3.org/1999/xlink" x="0px" y="0px"
	 width="1200px" height="1200px" viewBox="0 0 1200 1200" enable-background="new 0 0 1200 1200" xml:space="preserve">
<g>
	<path d="M600,48.184C295.728,48.184,48.184,295.728,48.184,600c0,304.27,247.543,551.816,551.816,551.816
		S1151.816,904.27,1151.816,600C1151.816,295.728,904.272,48.184,600,48.184z M1113.934,600
		c0,283.392-230.544,513.949-513.934,513.949S86.049,883.392,86.049,600C86.049,316.61,316.61,86.064,600,86.064
		S1113.934,316.61,1113.934,600z"/>
	<g>
		<path d="M567.306,330.268c10.071,2.403,19.201,4.561,28.319,6.765c11.54,2.793,23.036,5.791,34.633,8.33
			c3.382,0.739,4.362,2.223,4.735,5.44c9.084,77.832,18.31,155.645,27.307,233.483c0.455,3.945,2.128,5.577,5.404,6.981
			c57.216,24.531,114.379,49.189,171.604,73.701c16.093,6.894,27.944,17.332,30.53,35.563c4.595,32.385-24.396,56.151-54.711,44.063
			c-28.067-11.195-55.531-23.904-83.215-36.044c-130.699-57.301-261.385-114.632-392.069-171.966
			c-4.163-1.825-9.889-2.757-11.934-5.98c-2.022-3.185-0.464-8.76-0.186-13.266c1.766-28.76,3.614-57.508,5.431-86.264
			c0.544-8.61,1.065-17.221,1.62-25.829c0.091-1.41,0.307-2.81,0.504-4.546c16.552,6.899,32.766,13.575,48.871,20.501
			c1.478,0.635,2.679,2.723,3.305,4.398c6.048,16.142,11.852,32.374,17.996,48.475c0.815,2.134,2.804,4.491,4.843,5.389
			c42.983,18.953,86.05,37.712,129.107,56.498c1.143,0.498,2.361,0.834,4.506,1.584
			C551.728,468.274,559.482,399.575,567.306,330.268z"/>
		<path d="M874.677,804.465c0,13.908,0,27.373,0,41.253c-183.075,0-365.965,0-549.112,0c-0.089-1.65-0.229-3.072-0.231-4.497
			c-0.019-12.171-0.011-24.342-0.011-36.755C508.673,804.465,691.57,804.465,874.677,804.465z"/>
	</g>
</g>
</svg>
